<svg width="300" height="300" viewBox="0 0 300 300" fill="none" xmlns="http://www.w3.org/2000/svg">
<rect width="300" height="300" rx="150" fill="#7F00FF"/>
<circle cx="150.005" cy="150" r="112" fill="white"/>
<rect x="54.0049" y="141" width="11" height="52" rx="5.5" fill="#FF577F"/>
<rect x="78.0049" y="141" width="11" height="51.7849" rx="5.5" fill="#FF577F"/>
<path d="M102.005 146.5C102.005 143.462 104.467 141 107.505 141V141C110.542 141 113.005 143.462 113.005 146.5V187.285C113.005 190.323 110.542 192.785 107.505 192.785V192.785C104.467 192.785 102.005 190.323 102.005 187.285V146.5Z" fill="#FF577F"/>
<rect x="187.005" y="141" width="11" height="51.7849" rx="5.5" fill="#FF577F"/>
<rect x="211.005" y="141" width="11" height="51.7849" rx="5.5" fill="#FF577F"/>
<rect x="235.285" y="141.043" width="11" height="51.7849" rx="5.5" fill="#FF577F"/>
<rect x="65.0049" y="210" width="87" height="52" rx="5" fill="white"/>
<path d="M204.3 204.257C208.518 206.755 209.293 212.547 205.426 215.561C199.618 220.088 192.904 223.867 185.528 226.739C174.899 230.879 163.188 233.022 151.321 233C139.454 232.977 127.756 230.79 117.152 226.61C109.8 223.712 103.113 219.911 97.336 215.367C93.4793 212.334 94.2818 206.541 98.5149 204.06V204.06C101.561 202.274 105.403 202.864 108.118 205.121C112.876 209.074 118.489 212.357 124.713 214.811C132.983 218.07 142.106 219.776 151.361 219.794C160.616 219.811 169.75 218.14 178.039 214.911C184.285 212.479 189.922 209.213 194.708 205.273C197.429 203.032 201.266 202.461 204.3 204.257V204.257Z" fill="#5B5B5B"/>
<rect x="59.2354" y="215.621" width="37.7478" height="27.1044" rx="10" transform="rotate(51.5797 59.2354 215.621)" fill="#7F00FF"/>
<path d="M78.6729 251.729L65.8375 259.759L65.2324 258.792C64.8292 258.147 65.0248 257.298 65.6693 256.895L75.2037 250.93C76.3823 250.193 77.9355 250.551 78.6729 251.729V251.729Z" fill="white"/>
</svg>
